<!-- Generated by IcoMoon.io -->
<svg version="1.1" xmlns="http://www.w3.org/2000/svg" width="32" height="32" viewBox="0 0 32 32">
<title>team-img-4</title>
<path fill="#e5e5e5" d="M0 0h32v32h-32v-32z"></path>
<path fill="#fff" d="M-752-4536h2880v6400h-2880v-6400z"></path>
<path fill="#f4f4fd" d="M-752-1200h2880v1560h-2880v-1560z"></path>
<path fill="#fff" d="M-440-736h528v848c0 4.418-3.582 8-8 8h-512c-4.418 0-8-3.582-8-8v-848z"></path>
<path fill="#4d5ae5" d="M56 16c0 11.046-4.477 21.046-11.716 28.284s-17.239 11.716-28.284 11.716c-11.046 0-21.046-4.477-28.284-11.716s-11.716-17.239-11.716-28.284c0-11.046 4.477-21.046 11.716-28.284s17.239-11.716 28.284-11.716c11.046 0 21.046 4.477 28.284 11.716s11.716 17.239 11.716 28.284z"></path>
<path fill="#f4f4fd" d="M31.992 32v-0.001h0.008v-11.736c0-5.741-1.236-10.164-7.948-10.164-3.227 0-5.392 1.771-6.276 3.449h-0.093v-2.913h-6.364v21.364h6.627v-10.579c0-2.785 0.528-5.479 3.977-5.479 3.399 0 3.449 3.179 3.449 5.657v10.401h6.62z"></path>
<path fill="#f4f4fd" d="M0.528 10.636h6.635v21.364h-6.635v-21.364z"></path>
<path fill="#f4f4fd" d="M3.843-0c-2.121 0-3.843 1.721-3.843 3.843s1.721 3.879 3.843 3.879c2.121 0 3.843-1.757 3.843-3.879-0.001-2.121-1.723-3.843-3.843-3.843v0z"></path>
</svg>
