<!-- Generated by IcoMoon.io -->
<svg version="1.1" xmlns="http://www.w3.org/2000/svg" width="32" height="32" viewBox="0 0 32 32">
<title>team-img-3</title>
<path fill="#e5e5e5" d="M0 0h32v32h-32v-32z"></path>
<path fill="#fff" d="M-624-4536h2880v6400h-2880v-6400z"></path>
<path fill="#f4f4fd" d="M-624-1200h2880v1560h-2880v-1560z"></path>
<path fill="#fff" d="M-312-736h528v848c0 4.418-3.582 8-8 8h-512c-4.418 0-8-3.582-8-8v-848z"></path>
<path fill="#4d5ae5" d="M56 16c0 11.046-4.477 21.046-11.716 28.284s-17.239 11.716-28.284 11.716c-11.046 0-21.046-4.477-28.284-11.716s-11.716-17.239-11.716-28.284c0-11.046 4.477-21.046 11.716-28.284s17.239-11.716 28.284-11.716c11.046 0 21.046 4.477 28.284 11.716s11.716 17.239 11.716 28.284z"></path>
<path fill="#f4f4fd" d="M21.329 5.313h2.921v-5.088c-0.504-0.069-2.237-0.225-4.256-0.225-4.212 0-7.097 2.649-7.097 7.519v4.481h-4.648v5.688h4.648v14.312h5.699v-14.311h4.46l0.708-5.688h-5.169v-3.919c0.001-1.644 0.444-2.769 2.735-2.769z"></path>
</svg>
